<?xml version="1.0" encoding="utf-8"?>
<!-- Generator: Adobe Illustrator 14.0.0, SVG Export Plug-In . SVG Version: 6.00 Build 43363)  -->
<!DOCTYPE svg PUBLIC "-//W3C//DTD SVG 1.1//EN" "http://www.w3.org/Graphics/SVG/1.1/DTD/svg11.dtd">
<svg version="1.1" id="Layer_1" xmlns="http://www.w3.org/2000/svg" xmlns:xlink="http://www.w3.org/1999/xlink" x="0px" y="0px"
	 width="106.4px" height="93.2px" viewBox="0 0 106.4 93.2" style="enable-background:new 0 0 106.4 93.2;" xml:space="preserve">
<style type="text/css">
<![CDATA[
	.st0{fill-rule:evenodd;clip-rule:evenodd;fill:#082F65;}
	.st1{fill:none;stroke:#FFFFFF;stroke-width:0.2835;stroke-miterlimit:22.9256;}
	.st2{fill:none;stroke:#FFFFFF;stroke-width:0.4252;stroke-linecap:round;stroke-linejoin:round;stroke-miterlimit:22.9256;}
	.st3{fill:none;stroke:#FFFFFF;stroke-width:0.216;stroke-linecap:round;stroke-linejoin:round;stroke-miterlimit:22.9256;}
	.st4{fill:none;stroke:#FFFFFF;stroke-width:0.2268;stroke-linecap:round;stroke-linejoin:round;stroke-miterlimit:22.9256;}
	.st5{fill:none;stroke:#FFFFFF;stroke-width:0.2835;stroke-linecap:round;stroke-linejoin:round;stroke-miterlimit:22.9256;}
	.st6{fill:none;stroke:#FFFFFF;stroke-width:0.8504;stroke-linecap:round;stroke-linejoin:round;stroke-miterlimit:22.9256;}
	.st7{fill:none;stroke:#FFFFFF;stroke-width:0.5669;stroke-linecap:round;stroke-linejoin:round;stroke-miterlimit:22.9256;}
	.st8{fill:none;stroke:#FFFFFF;stroke-width:0.7087;stroke-linecap:round;stroke-linejoin:round;stroke-miterlimit:22.9256;}
]]>
</style>
<polygon class="st0" points="-36.8,145.8 135.4,145.8 135.4,281.3 -36.8,281.3 -36.8,145.8 "/>
<polygon class="st0" points="-36.8,306 135.4,306 135.4,441.6 -36.8,441.6 -36.8,306 "/>
<polygon class="st0" points="176.2,-169.5 348.4,-169.5 348.4,-33.9 176.2,-33.9 176.2,-169.5 "/>
<polygon class="st0" points="176.2,145.2 348.4,145.2 348.4,280.8 176.2,280.8 176.2,145.2 "/>
<polygon class="st0" points="178.2,306 350.4,306 350.4,441.6 178.2,441.6 178.2,306 "/>
<polygon class="st0" points="-36.8,-169.5 135.4,-169.5 135.4,-33.9 -36.8,-33.9 -36.8,-169.5 "/>
<path class="st8" d="M17.4,174.3l39-14.4l30.1,16.5 M17.4,174.3l0,2.8l38.9-12.9l30.1,15.1 M56.3,159.9v4.2 M18.3,176.7l0.5,61.1
	 M20,238.1l-0.5-61.7"/>
<line class="st5" x1="19.5" y1="177.1" x2="53.9" y2="166.1"/>
<path class="st8" d="M53.9,165.3l-0.1,81.8 M53.2,247.8l0.3-0.8l2.6,0.8l2.5-1.1l0.3,0.9 M56.1,247.8l0,4.6l29.8-12.5 M56.1,252.3
	l-37.7-11.2 M53.2,247.8l-33.4-9 M58.9,247.6l24.8-9.6l0.3-0.7l1.9-0.6"/>
<polyline class="st5" points="20.6,237.9 28.1,239.6 29.4,239.4 43.6,243 43.6,243.7 53.8,246.4 "/>
<path class="st8" d="M18.4,241.2l0-3.6l1,0.3l0.1,0.9 M56.1,164.6l0.1,82.9 M58,165.4l0.1,81.5 M17.9,176.5l0.4,0.3 M85.8,178.9
	l-0.7,58.1 M84.6,178.8L84,237.2"/>
<path class="st5" d="M58,166.1l26.9,13.4 M58.3,246.4l25.7-9.4"/>
<path class="st8" d="M29.4,239.2l14,3.4 M45.3,244.2l0.3-69.1l-19.2,5.4l0.4,58.8 M28.1,239.6l-0.3-58l15.5-3.9l0.3,66"/>
<polyline class="st5" points="43.3,178.7 29.2,182.3 29.4,239.4 "/>
<path class="st8" d="M85.9,236.7l0,3.1 M81,186l-15.2-5.6 M81,186l-0.2,29l-15.1,0.4l0.1-35 M66.9,182.6l-0.2,31.1l13-0.2l0.1-26.6
	L66.9,182.6L66.9,182.6z M66.9,184l11.9,3.9l-0.2,24.2 M67.2,212l8.6,0.2l3,0"/>
<polyline class="st5" points="66.9,185.2 78.1,188.6 78,212.1 "/>
<line class="st8" x1="86.4" y1="179.1" x2="86.4" y2="176.4"/>
<path class="st8" d="M0.4,16.5L46.8,0.4L106,29.5 M0.4,16.5l0,2.5L46.8,4.6L106,30.7 M46.8,0.4v4.2"/>
<path class="st8" d="M0.7,19.3l0.5,56.6 M2.4,76.2L1.9,19"/>
<line class="st5" x1="1.9" y1="19.5" x2="44.4" y2="6.6"/>
<path class="st8" d="M44.4,5.8l-0.1,81.8 M43.7,88.3l0.3-0.8l2.5,0.8l2.4-1.1l0.3,0.9 M46.6,88.3l0,4.6L106,67.4 M46.6,92.8
	L0.8,79.1 M43.7,88.3L1.9,76.8 M49.4,88.1l56.4-22.3"/>
<line class="st5" x1="2.8" y1="75.7" x2="44.3" y2="86.9"/>
<path class="st8" d="M0.8,79.1l0-3.3l1,0.2l0.1,0.8 M46.6,5.1L46.6,88 M48.5,5.9l0.1,81.5 M0.4,19.1l0.4,0.2 M105.5,30.5l-0.4,35"/>
<path class="st5" d="M48.4,6.6l56.8,24.7 M48.5,86.7l18.8-7.1 M105.1,65.3L48.5,86.7"/>
<path class="st8" d="M105.9,65.8l0,1.6 M10.6,22.7L29.2,18 M10.6,22.7l0.2,31.1l18.5,0.4L29.2,18 M27.9,20.2l0.2,32.3l-16-0.2
	L12,23.7L27.9,20.2L27.9,20.2z M17,24l-3.8,0.8l0.2,26.3 M27.9,21.8l-9.2,1.9v27.5l9.4-0.1 M17,24l0.1,27.1l-3.6,0"/>
<path class="st5" d="M17,24.9l-2.8,0.6l0.1,25.1 M27.9,22.7l-8.3,1.6l0.2,26.3"/>
<line class="st8" x1="106" y1="30.7" x2="106" y2="29.5"/>
<polyline class="st8" points="-8.3,-132.6 44.6,-156 97.5,-134.4 "/>
<polyline class="st7" points="-8.3,-131.2 44.6,-153.4 97.4,-133.2 "/>
<path class="st7" d="M25.5-141.5l10.6-4.1 M26-80.8l10.7,2.5 M7.1-134.3l7.4-2.9 M7.5-85l7.4,1.7"/>
<path class="st2" d="M-5.3-129.6l5.1-2 M-4.9-87.9l5.1,1.3"/>
<path class="st7" d="M93.8-131.3l-0.2,13.5 M93.8-131.3l-6.2-2.1l-0.2,14.6l6.2,1.1"/>
<polyline class="st2" points="87.7,-132.4 92.8,-130.7 92.7,-118.8 87.4,-119.9 "/>
<polyline class="st5" points="87.6,-131.7 92.2,-130.1 92.1,-119 "/>
<line class="st8" x1="44.8" y1="-59.3" x2="44.8" y2="-56.4"/>
<line class="st5" x1="-7.4" y1="-130.9" x2="43.7" y2="-151.9"/>
<path class="st5" d="M96.5-133.5l-0.2,27.3 M96.3-103.5l-0.1,18.6 M96.1-82.4l0,5.4 M45.9-152l50.5,19.3 M-7.1-78.8l10.6,3.9
	 M4.1-74.7L19.5-69 M20.4-68.7l23.3,8.6 M46-60l13-4.5 M58.8-64.7l8.1-2.7 M67-67.2l27.7-9.5"/>
<line class="st8" x1="-8" y1="-78.5" x2="-7.9" y2="-77.1"/>
<path class="st8" d="M-8-106l52.7-1.7l8.5,0.2l12.3-0.4l17,0.5l0,0.7l14.8,0.4 M-7.9-77.1l52.7,20.7l50.9-18.6 M-7.9-78.6l0.9,0.3
	l0.2,0.3L43-59.2l0.4-0.5l1.5,0.5l1.5-0.5l0.4,0.5l48.3-16.9"/>
<path class="st7" d="M57.7-107.6l-0.1-38.9l10.5,3.8l-0.2,34.9 M57.7-63.2L57.6-102l10.5,0l-0.2,35 M67-107.7l0.2-33.9l-8.4-2.9
	l-0.1,37 M67-66.7l0.2-34l-8.4,0.1l-0.1,37"/>
<path class="st5" d="M58.8-143.6l7.7,2.5l-0.1,33.4 M58.8-99.6l7.7-0.3l-0.1,33.4"/>
<path class="st7" d="M25.5-141.3l0.1,18.9l10.6-2l-0.1-21.2 M26-80.9l-0.3-18.7l10.7,0.4l0.3,20.9 M7.1-134.3l0.1,15.4l7.4-1.4
	l-0.1-16.9 M7.5-85l-0.2-15.2l7.4,0.3l0.3,16.7"/>
<path class="st2" d="M-5.3-129.6l0.1,13l5.1-1l-0.1-14.1 M-4.9-87.9L-5-100.7l5.1,0.2l0.2,13.9"/>
<path class="st7" d="M35.4-144.1l0.1,18.6l-9.1,1.7l-0.1-16.9L35.4-144.1L35.4-144.1z M35.9-79.6l-0.2-18.4l-9.1-0.3l0.2,16.6
	L35.9-79.6L35.9-79.6z"/>
<path class="st2" d="M13.9-136.3l0.1,15.2l-6.3,1.2l-0.1-13.9L13.9-136.3L13.9-136.3z M14.3-84.2l-0.2-15l-6.3-0.3L8-85.7L14.3-84.2
	L14.3-84.2z"/>
<path class="st5" d="M-0.6-130.8l0.1,12.7l-4.3,0.9l-0.1-12L-0.6-130.8L-0.6-130.8z M-0.3-87.4L-0.4-100l-4.3-0.2l0.2,11.8
	L-0.3-87.4L-0.3-87.4z M35.4-142.6l-8.2,2.8l0.1,15.8 M35.9-81.1l-8.2-1.6l-0.2-15.6 M13.9-135l-5.6,2L8.4-120 M14.3-85.4l-5.6-1.1
	L8.5-99.4"/>
<path class="st4" d="M-0.6-130.1l-3.8,1.4l0.1,11.3 M-0.3-88.1l-3.8-0.8L-4.2-100"/>
<path class="st8" d="M53.1-107.4l0.1,2l12.3,0l16.9,0.3l0.1-1.3 M65.5-105.5l-0.1-2.3 M79.6-105.3l25,31.4 M77.3-105.3l26.3,31.9
	 M69-105.4l27.6,31 M97.3-106.1l0,2.5l-24.5,0.3 M70.8-103.4l-26.1,0.2L-8-103.5l0-2.5 M97.5-134.4l0,1.2 M-8.3-132.6l0,1.3"/>
<path class="st7" d="M-8-131.4l0.1,25.3 M-7.9-103.2l0.1,24.9 M97.3-133.2l-0.2,27.1 M97.1-103.5l-0.1,19.9 M96.9-81.4l0,5"/>
<path class="st7" d="M43.6-153l0.1,45.4 M43.7-103.2l0.1,43.6 M45.9-152.9l0,45.3 M46-103.2l0,43.6"/>
<path class="st8" d="M44.6-153.4v-2.5 M44.8-153.4l0.1,94.2"/>
<path class="st5" d="M-7.1-78.1l-0.1-25.4 M-7.3-106l-0.1-25l-0.4-0.1"/>
<line class="st2" x1="3" y1="-136" x2="3.1" y2="-106.4"/>
<line class="st7" x1="19.2" y1="-142.7" x2="19.4" y2="-106.9"/>
<line class="st2" x1="3.3" y1="-103.3" x2="3.4" y2="-74.1"/>
<line class="st7" x1="19.4" y1="-103.3" x2="19.6" y2="-68.1"/>
<path class="st5" d="M3.6-136.2l0.2,29.8 M20-143.1l0.2,36.2 M3.9-103.6l0.2,29.7 M20.1-103.3l0.2,35.8"/>
<polyline class="st6" points="53.2,-123.1 65.3,-124.9 82.5,-121.6 106.8,-84.9 "/>
<path class="st5" d="M53.2-117l12.1-1.2l17.1,2.4L106-82 M53.2-113.4l12.1-0.8l17.1,1.7l23.8,33.1 M53.3-109.2l12-0.5l16.9,0.8
	L106-76.7"/>
<line class="st7" x1="106" y1="-75.1" x2="106.1" y2="-86"/>
<path class="st8" d="M106.7-74.4l-3.3,1.5 M98.3-75.1l-1.7,0.7 M75-100.8l5.9,0 M77.4-98.1l5.8,0 M79.8-95.5l5.7,0.1 M82-92.8
	l5.7,0.1 M84.1-90.5l5.4,0.2 M86.2-88.2l5.3,0.2 M88-86.1l5.3,0.3 M89.9-83.8l5.2,0.2 M91.6-81.9l5.1,0.3 M93.4-80l5,0.3 M94.7-78.2
	l4.9,0.1 M95.9-77l4.9,0.3 M96.8-76l4.9,0.4 M83.2-100.8l3.9,0 M85.6-97.8l3.8,0 M87.7-95.2l3.8,0 M89.8-92.5l3.7,0 M91.8-90l3.6,0
	 M93.8-87.5l3.2,0 M95.5-85.4l2.7-0.1 M97.2-83.3l2.5-0.1 M98.7-81.3l2.5,0 M100.2-79.6l2.6-0.1 M101.5-78l2.4-0.1 M103.7-75.1
	l2.9-0.4 M102.5-76.8l2.8-0.1"/>
<path class="st5" d="M72.1-105.9l25.6,29.4"/>
<path class="st8" d="M-6,336.7l50.3-15.8l64.1,29.6 M-6,336.7l0,2.5l0.4,0.2 M-4.4,338.7l45.9-13 M46.4,325.9l60.9,25.2 M-5.6,339.4
	l0.6,56.7 M-3.8,396.4l0-1.7 M-3.9,392.2L-4,379.4 M-4,376.8l-0.1-12.7 M-4.1,361.3l-0.1-13.8 M-4.3,345l-0.1-6.3 M41.5,325.8
	l0.1,82.3 M40.9,408.8l0.4-0.8l2.8,0.8l2.6-1.1l0.4,0.9 M44.1,408.8l0,4.6l64.3-25.1 M44.1,413.4l-49.6-14.1 M40.9,408.8L-4.3,397
	 M47.1,408.7l59.8-21.4l0.5-0.5l0.9-0.1 M-5.5,399.3l0-3.3l1,0.2l0.1,0.8 M44.3,320.8l-0.2,87.7 M46.4,325.9L46.1,408 M-6,339.2
	l0.4,0.2 M108.2,351.5l0,35.1"/>
<line class="st7" x1="107.2" y1="351.1" x2="107.2" y2="386.8"/>
<line class="st5" x1="46.4" y1="327.2" x2="107.2" y2="352"/>
<path class="st3" d="M50.9,329.1v78.2 M57.5,332.2v72.2 M63.7,334.3L63.6,403 M69.1,337.2v63.6 M73.4,338.2v61.2 M77.7,340.5v57.2
	 M81.4,341.5v54.9 M85,343.3v51.8 M87.7,344.1v50 M90.5,345.6v47.5 M92.9,346.2v46 M95.3,347.2v44.1 M97.3,348v42.7 M99.4,349v40.9
	 M101,349.5v39.8 M102.7,350.5v38.3 M104.1,350.7v37.5 M105.7,351.7v36"/>
<polygon class="st2" points="40.6,335.6 40.6,332.6 39.9,332.2 35.8,334.3 35.8,335.7 40,335.8 40.6,335.6 "/>
<line class="st5" x1="39.7" y1="332.3" x2="39.8" y2="335.8"/>
<polygon class="st2" points="-5.5,347.7 -5.5,345.6 -4.9,345.1 -2.2,345.3 -2.2,346.3 -5,347.6 -5.5,347.7 "/>
<line class="st5" x1="-4.8" y1="345.2" x2="-4.8" y2="347.6"/>
<polygon class="st2" points="40.8,359.1 40.7,356.1 40,355.7 36,357.3 36,358.7 40.1,359.3 40.8,359.1 "/>
<line class="st5" x1="39.8" y1="355.7" x2="39.9" y2="359.2"/>
<polygon class="st2" points="-5.3,363.9 -5.3,361.8 -4.8,361.4 -2.1,362.1 -2,363 -4.9,363.9 -5.3,363.9 "/>
<line class="st5" x1="-4.7" y1="361.4" x2="-4.7" y2="363.9"/>
<polygon class="st2" points="40.9,381.4 40.8,378.4 40.1,377.9 36.1,379 36.1,380.4 40.2,381.5 40.9,381.4 "/>
<line class="st5" x1="39.9" y1="377.9" x2="40" y2="381.5"/>
<polygon class="st2" points="-5.2,379.2 -5.2,377.2 -4.7,376.8 -2,377.6 -2,378.5 -4.8,379.3 -5.2,379.2 "/>
<line class="st5" x1="-4.6" y1="376.8" x2="-4.6" y2="379.2"/>
<polygon class="st2" points="41,403.8 40.9,400.8 40.2,400.1 36.2,400.7 36.2,402.1 40.3,403.8 41,403.8 "/>
<line class="st5" x1="40" y1="400.1" x2="40.1" y2="403.7"/>
<polygon class="st2" points="-5.1,394.6 -5.1,392.5 -4.6,392.2 -1.9,393.1 -1.9,394.1 -4.7,394.7 -5.1,394.6 "/>
<line class="st5" x1="-4.5" y1="392.2" x2="-4.5" y2="394.6"/>
<path class="st7" d="M-3.2,345l0-5.6l42.1-11l0,4.2 M38.9,335.9l0,20.1 M38.9,359.2l0,18.9 M39,381.4l0,18.8 M39,403.4l0,3.1L-3,396
	l0-1.5 M-3,392.6l-0.1-13.6 M-3.1,377.1l-0.1-13.6 M-3.1,361.7L-3.2,347 M13.1,335.1l0.7,65.1"/>
<path class="st8" d="M24.9,329l0.2,77 M9.1,333.7l0.1,68 M17.7,331.1l0.1,73 M2.7,335.6l0.1,64.5 M24.1,329.1l0.1,76.5 M8.3,333.9
	l0.1,67.6 M16.9,331.2l0.1,72.5 M2,335.7l0.1,64.1 M24.1,406.2h1.8 M8.3,401.9h1.6 M17,404.3h1.7 M2,400.2h1.5 M24.1,328.7l1.9-0.2
	 M8.3,333.5l1.7-0.2 M16.9,330.9l1.8-0.2 M2,335.4l1.6-0.2"/>
<polyline class="st5" points="25,383.3 26.2,383.9 26.2,385.1 25,385.3 "/>
<polyline class="st5" points="1.8,381.3 0.9,381.7 0.9,382.8 1.8,383.2 "/>
<polyline class="st5" points="17.8,382.6 18.9,383.1 18.9,384.3 17.9,384.5 "/>
<polyline class="st5" points="8.3,381.8 7.6,382.2 7.6,383.2 8.3,383.6 "/>
<polyline class="st5" points="26.1,383.9 30.9,384.2 30.9,385.4 26.2,385.1 "/>
<polyline class="st5" points="1,381.7 -1.7,381.5 -1.6,382.5 0.9,382.8 "/>
<polyline class="st5" points="18.9,383.1 23.4,383.4 23.4,384.6 18.9,384.3 "/>
<polyline class="st5" points="7.6,382.2 4.1,381.9 4.1,382.8 7.5,383.2 "/>
<line class="st5" x1="-3.2" y1="351.3" x2="38.9" y2="343.8"/>
<line class="st5" x1="-3.2" y1="354.2" x2="38.9" y2="348.4"/>
<line class="st5" x1="-3.1" y1="367.7" x2="38.9" y2="366.3"/>
<line class="st5" x1="-3.1" y1="370.3" x2="39" y2="370.7"/>
<line class="st5" x1="-3.1" y1="386.2" x2="39" y2="392.2"/>
<line class="st5" x1="-3.1" y1="383.7" x2="39" y2="388.8"/>
<path class="st5" d="M212.2-99c0.6-0.4,3.4,0,4.1,0.1c0,1-1,0.4-3,0.3C211.7-98.6,212.4-98.8,212.2-99L212.2-99z M216.8-98.9
	c4.1,0.1,8.4,0.6,12.5,0.8l10.4,0.6c1.2,0.1,1-0.2,1.2,0.7c-1,0.5,0.3,0.1-0.6,0.1l-17.8-1.2c-1-0.1-2-0.1-2.9-0.2
	C216.9-98.3,217-97.9,216.8-98.9L216.8-98.9z M212.4-97.2c0.4-0.3-0.9-0.5,2-0.1c0.9,0.1,1.3,0,1.9,0.4c-0.4,0.3,0.8,0.4-2,0.1
	C213.7-97,213-97,212.4-97.2L212.4-97.2z M224.9-97c0.5-0.4,0.4-0.2,1.8-0.1c0.7,0,1.3,0.1,2,0.1c1.4,0.1,2.8,0.2,4.2,0.3
	c1.3,0.1,2.7,0.2,4,0.2l3.5,0.3c0.5,0.1,0.1,0,0.4,0.2c-0.6,0.5-7-0.2-7.8-0.3C231.6-96.4,225.7-96.6,224.9-97L224.9-97z
	 M216.8-96.8c0.3-0.3,0-0.2,0.7-0.3l11.2,0.9c1.8,0.1,11.2,0.5,12,1c-0.3,0.7-0.5,0.4-2.6,0.3l-18.3-1.4c-0.5,0-0.9-0.1-1.4-0.1
	c-0.1,0-0.6,0-0.7-0.1c-0.1,0-0.3,0-0.3-0.1C216.6-96.8,217-96.7,216.8-96.8L216.8-96.8z M213.1-96.4c0,0,0.1-0.1,0.1-0.1l1.2,0
	c0.5,0.1,1,0.1,1.5,0.2l8.2,0.9c0.6,0.2,0.3,0.1,0.5,0.2l-10.9-0.9C212.6-96.3,213.6-96.2,213.1-96.4L213.1-96.4z M212.9-95.4
	c0.4-0.4-0.7-0.3,0.8-0.3l2.7,0.4C215.7-95,213.3-94.7,212.9-95.4L212.9-95.4z"/>
<path class="st5" d="M211.9-92.2c0.2-0.1,0-0.2,0.5-0.2c0.2,0,0.4,0.1,0.7,0.1c0.5,0.1,0.8,0.2,1.2,0.2c2,0.3,1.8,0,2.1,0.7
	c-0.2,0.2,0.1,0.4-1.2,0.2l-2.4-0.4C211.6-91.9,212.3-91.6,211.9-92.2L211.9-92.2z"/>
<path class="st5" d="M212.8-92.7l-0.3-2.1c0.8,0.9,0.7,1.3,2.2,1.5c0.3-0.6,0.2,0.2,0-0.4c-0.2-0.5-0.4,0.2-0.2-0.2
	c0.9,0,1,0.2,1.8-0.1c0,0-0.1-0.2-0.5-0.3c-0.3-0.1-1.3,0-2-0.3c0.5-0.3,7.2,0.6,8.1,0.7l2.1,0.2c0.6,0.2,0.3,0.1,0.7,0.4l-8-0.9
	l-0.4,0.5l-1.4-0.1c0.9,0.9,4.6,1.1,5.8,1.2c2.1,0.2,4.1,0.5,6.1,0.7c2.6,0.3,10.6,1.3,12.5,0.6c-0.6-0.5-0.9-0.2-2.8-0.3
	c-1-0.1-1.9-0.1-2.9-0.2c-2.7-0.1-15.6-1.3-16.6-1.9l16.1,1.6c1,0.1,1.8,0.2,2.8,0.3c2,0.2,2.2,0.5,2.9-0.1l-13-1.2
	c-1.2-0.2-0.3,0-0.7-0.3c0.5-0.2,0.7-0.1,1.4-0.1c2.4,0.2,10.7,1.2,11.8,0.9c0,0,0.1-0.1-0.4-0.2l-20.6-2c-0.5-0.2-0.2,0-0.5-0.4
	c0.4-0.3-0.1-0.2,0.5-0.3l2.3,0.2c3.8,0.3,19,2,20.5,1.6c-0.3-0.3,0.8-0.2-1.6-0.4l-9.8-0.8c-1-0.1-3.2,0-3.7-0.6
	c0.6-0.2,13.8,0.7,15.4,0.8l-0.5,1.6c0,0,0,0.1-0.1,0.1c-0.4,0.3-0.6-0.1-1.6,0.2c0.1,0.1,0.1,0.2,1.1,0.3c0,0,0,0.1,0,0.1
	c0,0.1,0,0.1,0,0.1c-0.1,0.7-0.4-0.1,0.1,0.6c0.3-0.6,0.4-0.4,0.8-1.2l0.2-0.6c0.1-0.3,0.1-0.5,0.2-0.8c1.5-4.9,0-4.5-6.3-4.8
	l-22.1-1.3c-0.6,0.2-0.6,0.7-0.8,1.1l-0.1,0.3c-0.6-1-1.3-1.2-2.4-1.8l-1-0.7c0.4-0.1,1.4,0.2,2,0.4c0,0,0.5-0.1,0.5,0l1-0.8"/>
<path class="st3" d="M231.9-83.4c-0.1,0.6-0.1,0.7,0,1.3l0.2,0.7c0,0.1,0.1,0.3,0.1,0.3c0.8,2.7,1,2.1,5.1,2.8
	c2.1,0.4,2.6,0.6,4-0.4c0.7-5.6-1.3-4.6-6.5-5.3C233.1-84.1,233-84.3,231.9-83.4L231.9-83.4z"/>
<path class="st5" d="M258.2-150.2c0.1-2.9,1.4-3.1,4.8-3.8c-0.5,0.9-0.7,1.8-0.9,3L258.2-150.2L258.2-150.2z M264.4-150.6l-0.9-0.4
	c0.7,1.1,0.3,0,0.4,0.7c-0.7,0.2-0.9,0.2-1.2,0.4l-0.1,0.2l0,0.6l0.7,1.2c0.7-0.3,0.9-0.1,1.3-0.8l0.9,3.4l-3,0
	c0-1.1-0.5-3.1-0.1-4.1l-0.5,0.4c-0.9-0.8-0.2,0.4-0.5-0.6c-0.3-0.9,1.2-1,2-1.3l-1-0.3l0.2-0.8c-0.2-4.4,4.4-2.1,6.1-1.3
	c1.1,0.5,2.6,2.9,3.6,4.2c0,0,0.1,0.1,0.1,0.1l0.3,0.5c0,0,0.1,0.1,0.1,0.1c0,0,0.1,0.1,0.1,0.1l0.4,0.4c0,0,0.1,0.1,0.2,0.1l-1-1.5
	c-0.7-1-1.3-1.5-1.6-2.3l19.4,8.9c1.3,0.6,5.5,2.4,6.3,3.1l0.8,4.1l-1.7-0.5l-0.2-3c-0.9-0.4-1.2-0.6-2.2-0.1l0.1,1.6
	c-1.8,0.2-1.5,0-3-0.6l-8.3-3.1c-1.5-0.5-4.4-1.3-5.2-2.4c-0.5-0.7-1.1-1.4-1.7-2.1l-1.3-1.8c0,0-0.1-0.1-0.1-0.1l-0.2,0.2
	c0.3,0.5,2.5,3,2.8,3.8c-2.3-0.6-2.1-1.7-4.5-0.5c-0.9,0.4-1.1,0.1-2.2-0.3c-0.9-0.3-1.4-0.4-2.3-0.6c-0.2-1.4-0.5-2-2-2.1
	L264.4-150.6L264.4-150.6z M280-140.3c-0.6-0.2-0.4,0-1-0.2c0,0-3.4-1.7-3.5-1.7c1.5-0.7,2.6,0,4,0.6c1.3,0.5,2.6,1,3.9,1.5
	c1.4,0.5,6.9,2.4,7.7,3c-0.8,0.2-1.5,0.4-2.2,0.1l-5.8-2.1C282.4-139.5,280.7-140.1,280-140.3L280-140.3z M252.6-126.1
	c-0.4-2.9-0.6-6.1-0.8-9c-0.6-7.5-0.4-6.6,2.3-6.8c2.7-0.1,3.8-0.2,3.9,1.2l0,14.6L252.6-126.1L252.6-126.1z M283.7-137.6
	c0.9,0.2,1.8,0.7,2.8,0.8v0.4c-1.1,0-1.4,0.1-2.2,0.2L283.7-137.6L283.7-137.6z M284.6-135.6c0.1,0,0.1-0.1,0.2-0.1l8-1.3
	c1.1-0.1,0.5-0.2,0.7,0.3c-0.3,0.6,0.1,0.4-1,0.5l-3.7,0.5c-0.8,0.1-1.6,0.2-2.5,0.3C285.2-135.1,285-134.8,284.6-135.6L284.6-135.6
	z M293.9-137c-0.1-1.4,0.1-1.1,0.4-1.3c0.5,0.3,0.2-0.4,0.4,0.7l1.1,25.4c-0.2,0.6,0.1,0.2-0.5,0.5c-0.4-0.5-0.2,0.6-0.3-0.8
	l-0.1-6.1c-0.1-2.1-0.2-4.4-0.3-6.5l-0.6-10.2C293.9-136,293.9-136.5,293.9-137L293.9-137z M299.3-136.4c0.7,0.9,0.7,3.7,0.5,4.8
	l-0.6-0.2c-0.1-0.9-0.1-1.8,0.1-2.6c0.2-1.2-0.1-0.8-0.1-1.7C299.2-136.4,299.2-136.3,299.3-136.4L299.3-136.4z M292.7-135.4
	L292.7-135.4C292.7-135.4,292.6-135.4,292.7-135.4L292.7-135.4z M296.5-134c1.2,0,0.6-0.1,0.8,0.4c-0.1-0.1-0.3-0.1-0.4-0.2
	C296.5-134,296.7-133.9,296.5-134L296.5-134z M296.3-131.6c-0.3-0.6-0.2-0.9-0.2-1.8c0.4,0.2,0.7,0.3,1.2,0.4
	C296.3-132.1,297.5-132.3,296.3-131.6L296.3-131.6z M297.5-131.9c-0.6-0.2-0.1,0-0.3-0.3c0.9-0.4,0.6-0.2,0.8,0.2
	C297.8-131.9,298.5-131.6,297.5-131.9L297.5-131.9z M296.7-130.6c0.7-0.1,0.4-0.5,0.2-0.9c1.2,0,0.3-0.2,0.9,0.3
	C297.9-130.3,297.5-130.6,296.7-130.6L296.7-130.6z M298.8-129.1c-0.9-0.6-0.7-1.5-0.6-2.7l0.3,0.7c0,0,0.1,0.1,0.1,0.1
	c0.4,0.4,0.2-0.6,0.4,0.7c1.2,0.2,0.5-0.4,0.9,0.6c-0.2,0.1,0.2,0.6-0.7,0.2c-0.4-0.2-0.1,0-0.2-0.4c-0.5-1.3,0.1-0.4-0.6-1
	L298.8-129.1L298.8-129.1z M298-130c0,0.9,0.1,0.7-0.8,0.9C297.2-130.1,297.1-130,298-130L298-130z"/>
<path class="st8" d="M294.8-116.2c-1.5-1-0.9-0.9-4.3,1.2l-3,1.8v-0.8c0.8,0,0.5,0.1,1-0.2v-0.6c-1.1,0-0.3,0-0.6-0.2
	c0.7-0.2,0.9-0.6,1.5-0.9c0.6-0.3,1.1-0.4,1.7-0.7c-0.7-2.8-3.1,1-3.6,1c-1.5,0,0.3-0.3-1.6,0.1l-0.4-19.1c1.3,0,2.2-0.3,3.2-0.4
	c1.5-0.2,5.2-0.5,5.4,1.6c0,0.5,0,1.3,0,1.9C294.3-126.8,294.8-120.8,294.8-116.2L294.8-116.2z"/>
<path class="st5" d="M253.6-120.5c-1.7,0-9.4,1-11,1.5c-1.5,0.5-8.7,3-9.2,2.9l2.3-0.3l-4.3,1.5c-2.2,0.7-2.4,0.8-4.9,0.8
	c-3.7,0.1-7.3,0.4-11.1,0.4c0,0,0.1-0.1,0.1-0.1c0,0,0.1-0.1,0.1-0.1l3.3-1.9c0,0,0-0.4-0.3-0.3l1.3-0.7c1.1-0.6,2.1-1,3.4-1.2
	c-0.8,0.5-1.4,0.5-2.4,0.8l-1.2,1c1.1-0.4,7.6-2.5,7.8-3c0-0.1,0.1-0.1,0.2-0.1c-2,0.4-4.3,0.6-6.1,1.3c-0.4,0.2-0.8,0.4-1.2,0.6
	l-3.7,1.9l1.9-0.5c-1.2,0.3-3.6,1.9-4.8,2.2c-1.2,0.3-4.6-0.3-5.1-1.6c1.4-3.3,9-18.8,11.2-19.9c6.4-3.1,40-9.6,42.9-8.1
	c0.2,0.4,0.2-0.4,0.1,0.5c0,1.1-0.6,2.6-0.9,3.5c-0.4,1.6-2.6,11.1-3.5,12.1c0-2.5,0-5,0-7.5c0-1.8,0.4-5.7-0.4-6.9
	c-1.5-0.8-4.9-0.4-6.5,0c-0.5,2.1-0.2,5.5-0.2,7.9c0,1.8-0.2,6.8,0.1,8.3l2.8,0.1l0.1,2.6c-1.2-0.1-5.9-1.4-6.1-2.2c0,0,0-0.1,0-0.1
	l0-0.7c-1.5-0.3-1.2-0.7-2.2-1.4c-1.8-1.4-6.7-2.2-7.2,0.5c-0.5,3.1,5.6,4.8,7.8,3.6c0.3-0.2,0.2-0.1,0.4-0.4l0.4-0.5
	c1.1,0.1,1.2,0.6,2.2,0.7c0,0-0.1-0.1-0.1-0.1l1.2,0.4c-0.2-0.1-0.3-0.2-0.6-0.2c-0.1,0-0.3-0.1-0.5-0.1l1.1,0.7c2,0.9,4.9,0.2,5,3
	c-0.9,0.3-1.4,0.8-2.4,1.2c-2.5,1-5.3,1.6-7.9,2.3c-2.8,0.7-9.1,1.6-12.1,1.7c0,0,0.1-0.1,0.1-0.1l1.1-0.6c0.4-0.2,0.8-0.3,1.1-0.4
	c1.6-0.7,3.1-1.5,4.9-1.8C245-118.2,249.4-119.4,253.6-120.5L253.6-120.5z"/>
<path class="st7" d="M316.1-100.6h4.6l0.4-2.6l1.4-0.2l0.2-6.6l-5.4-0.4c-1.2,0-1.4-0.2-2.6-0.2l-13.9-0.9c-0.9-0.2-1.7-0.1-2.7-0.1
	c-0.1,0-0.4,0-0.5,0c-0.5,0-0.8,0.4-0.8-1.3c0-1.9,0.1-3.9,0-5.8l-0.5-8.3c-0.2-0.9-0.1-2-0.1-2.9h0.6c-0.1,0.7-0.1,0.7,0.2,1.4
	l2.6-0.6c1-0.3,0.6-1.1,0.6-4.2c0-3.7-1-4.3-2.8-7c-1.4,0.3-2.1-0.2-4.7-1.5c-0.7-0.4-1.3-0.5-1.9-0.9c-4.8-2.4-12.2-5.3-16.6-7.6
	c-0.3-0.2-0.1-0.1-0.5-0.3c-1.1-0.6-2.4-0.8-3.4-1.6c-1.2-0.9,0-0.7-2.6-1.8c-0.4-0.2-0.6-0.2-1-0.4c-0.2-0.1-1-0.5-1.1-0.5
	c-1.7,0-6.3,1-7.3,2.5c-0.5,0.8-0.7,1.5-0.7,2.7c-0.9,0.4-0.5-0.1-0.9,0.7c-0.8,1.4-0.5,2.5-0.5,4.3c-13.9,1.2-27.7,4.3-35.7,8.1
	c-0.8,0.3-1.4,0.9-2,1.4c-3.1,2.8-8,14.1-10.5,18.9c-1.4-0.1-1.2-0.5-2.5,0.5c-1.4,1.2-1.8,0.8-3.6,0.9c-0.5,0-0.8,0.1-1,0.1
	c-1.3,0-3,0.1-3.4-1.3c-0.2-0.6,0.1-4.3-0.1-5.6l-0.1-2.7c0-0.5,0.1-1.4,0-1.8c-0.1-1.2-0.3-0.3-0.6-1.4h-0.8l-0.3,3
	c0,0.6,0.1,0.5,0.1,1.2v6.8c1.5,0.1,0.3,1.2,2.4,2.2c1.6,0.8,4,0.4,5.8,0.4c0.6,0,1.6-1.1,2.1-1.5c0.7-0.5-0.2-0.2,0.9-0.3
	c-0.2,0.2,0.2,0.1-0.6,0.2v4.4c0.6,0.2,0.3,0.1,0.8,0.4c-0.3,0.6-0.1,1.2-0.1,1.5l0.3,6.7c0.1,1.3,0,2.7,0,4l0.3,3.9
	c0.3,1.2,0.3,0.8-0.1,1.7c-1,2.4,0.1,5.9,1,8.1c0.4,1.1,0.6,2.1,1.9,2.3"/>
<path class="st5" d="M289.3-112.8c0.2-0.9,0.5-0.6,2.3-1.7c1-0.6,1.7-0.8,2.9-1.1v1.6c-1.5-1-1.7,0.5-4.1,0.9l-0.7,0.1
	C289.4-112.9,289.4-112.9,289.3-112.8L289.3-112.8z M210.7-111c0.5-0.2,0.9-0.6,1.3-0.6c0.5-0.1,0.5,0.1,1.9,0.1
	c-0.8-0.6-0.1-0.3-1-0.4c-0.4-0.1-0.4,0-0.5,0c0.6-0.5,1-0.1,1.6,0.4c-0.1-0.9,0.1-0.5-0.3-1.1c1.8-0.8,3.2-0.1,6.1-0.5
	c1.8-0.2,4.5-0.3,6.3-0.3c-0.2,0.2-0.1,0.2-0.4,0.3l-1,0.2c-1,0.3-1.6,1.6,0.5,1.8c0.7-0.7,0.1-0.4,1.1-0.8l4.4-1.6l7.3-0.7
	c2.3-0.3,4.5-0.9,7-1.1c1.8-0.2,4.1-1.3,5.9-1.6c-0.1,0.8-0.6,1.5-0.8,2.2c-0.2,1,0,0.9-0.4,1.7c-1.1,2-1.2,1.8-2.4,2
	c-5,0.5-9.5,1.1-14.6,1.2c-4.1,0.1-8.2,0.2-12.4,0.2c-5.8,0.1-6.3,0.1-11.9-0.6c0-1.3-0.1-2.8,0.3-3.9c1.3,0.4,1.3,0.6,3,0.8
	l-0.6,0.5c-0.5,0.3-1.2,0.2-1.6,1.2L210.7-111L210.7-111z M288.4-111.2c0.6-0.4,2.2-1,2.9-1.2c0.8-0.3,1-0.2,1.8-0.3c0.1,0,1,0,1,0
	c0.7,0.2,0.3-0.4,0.5,0.7c-0.4,0.2,0.1,0.1-0.5,0.2c-1.6,0.3-1.6,0.1-4.2,0.7c0,0-0.8,0.2-0.8,0.2
	C287.9-111,288.9-110.9,288.4-111.2L288.4-111.2z M295.7-110.1l-0.7,0c-0.2-0.3-0.5-0.8-0.5-1.2l1.2,0L295.7-110.1L295.7-110.1z
	 M287.6-109.3c0.5-0.6,0-0.1,0.7-0.5c2.7-1.3,5.8-0.8,6.1-0.9l0,1.4C293.6-109.7,288.7-109.6,287.6-109.3L287.6-109.3z M287.2-108.5
	c1.2-0.2,2.6-0.1,3.9-0.1c1.3,0,2.8,0.5,3.4,0.3l0,4.9l-2.2,0c0.7-2.1-1.9-1.9-3.6-3.1c-0.7-0.5-0.4-0.4-1.4-0.4
	c0.4-0.3,0-0.3,0.7-0.2c0.9,0,4.1,1.5,4.5,1.5c0.3-0.5,0.2-0.5,0.1-1.1l-4.3-1.1c-0.2-0.1-0.4-0.1-0.6-0.2
	C286.9-108.5,287.3-108.4,287.2-108.5L287.2-108.5z"/>
<polyline class="st8" points="321.4,-105.1 298.1,-103.3 298.2,-110.4 321.8,-109 321.8,-105 "/>
<path class="st7" d="M285.7-104.3c-0.3-0.7-0.1-4.5-0.1-5.5c0-1-0.2-5.1,0.3-5.7"/>
<path class="st5" d="M283.3-106.5c1.1,0.2,0.7,0.4,0.7,1.7c0.3,0.7-0.1,0.3,1,0.5l-1.7,0.1L283.3-106.5L283.3-106.5z M287.2-106.1
	c1,0.2,4.1,1.4,4.8,2.7c-6,0-5.4,0-4.9-1.3C287.2-105.2,287.1-105.6,287.2-106.1L287.2-106.1z M288.8-102.6c1-0.8,5.3-0.4,5.6-0.3
	c-0.1,1.1-1.6,0.7-3.7,0.9c-1,0.1-3.3,0.4-3.9,0.1c0.7-0.6,5.8-0.6,7.1-0.8C293-103.1,290-102.6,288.8-102.6L288.8-102.6z"/>
<polyline class="st8" points="321.8,-105 321.8,-104.1 298.2,-101.6 298.1,-103.3 "/>
<path class="st5" d="M283.5-101.5l0.1-2.3l2.7-0.1c0,0.9,0.1,1.5-0.3,2.2L283.5-101.5L283.5-101.5z M292.1-101l2.3-0.3l0,0.8
	C292.5-100.3,292.1-101,292.1-101L292.1-101z M289.8-100.8l0.3-0.2c0.2-0.1,0.3-0.1,0.6-0.1c0.7,0,0.8,0.1,1,0.3
	c-0.2,0.4,0.1,0.3-0.8,0.4C289.5-100.3,290.1-100.6,289.8-100.8L289.8-100.8z M295.3-109.7c0.7,0.3,0.6-0.8,0.5,2.1
	c0,1.1,0.2,6.5-0.3,7.2c-0.8-0.1-0.7,0.6-0.6-1.8l0-5.2c0-0.4-0.1-0.9-0.1-1.2C294.8-109.6,294.8-109.4,295.3-109.7L295.3-109.7z"/>
<path class="st8" d="M283.6-101l5.8,0c0.1,3.3-1,5.5-1.7,8.4l-5.9-0.4l-0.4-1c0.5-0.5,0.7-0.6,1.2-1.2c0.4-0.4,0.7-0.7,0.9-1.4
	C284-98.9,283.8-98.8,283.6-101L283.6-101z M280.1-138c1.3,1.5,2,6.2,2.2,8.2c0.7,7.2,0.6,14.4,0.8,21.7c0,1.6-0.3,6.1-0.6,7.4
	l0.6,1c-0.5,0.6-0.9,0.3-0.6,1.2c0.3,1.1,0.8-0.5,0.3,1.7 M313-101.1c0.8-0.2,2-0.5,2.7-0.5l0.6,3.1C311.6-98.6,312-99,313-101.1
	L313-101.1z"/>
<path class="st8" d="M252.8-97.8l6.1-0.8l0.2,7.5c-1.4,1-3.7,1.3-5.5,1.6L252.8-97.8L252.8-97.8z M290.7-96.2l1.7-0.1l0-1.9l0.8,0
	l0,5.7l-2.6-0.1L290.7-96.2L290.7-96.2z M308-93.2l-7.6,1.9c0-2.1,0.1-5,1.2-6.4l2.7,0.1l1.4,0.1C306.1-93.5,309.1-93.6,308-93.2
	L308-93.2z"/>
<path class="st8" d="M286.1-92c0.2-0.3-0.5-0.4,1.8-0.2l-1,0.5C286-91.6,286.3-91.6,286.1-92L286.1-92z M290-92.3l3.2,0.2l0,1.7
	c-0.7,0-1.6-0.2-2-0.5C290.4-91.3,290.5-91.5,290-92.3L290-92.3z"/>
<path class="st5" d="M216.9-91.4c0.6-0.4,3.4,0.2,4.2,0.3c8.1,0.9,14.4,1.7,22.7,2.2c3.3,0.2,6.6-0.1,9.9,0
	c-0.1,0.8,0.5,0.8-1.6,0.9l-7.8-0.1c-6.2-0.2-12.4-1-18.6-1.7l-8-1C216.3-91.1,217.1-91.1,216.9-91.4L216.9-91.4z"/>
<path class="st7" d="M209.3-93.6l-1.1-0.6l-0.2-5.8c3.5,1.1,3.3,1.9,4,6.9C210.8-93.2,210-93.5,209.3-93.6c0.4,0.4,0.3,0.5,0.8,0.6
	c0,0.7-0.1,0.5,0.1,1c1.9,0.8,6.2,1.3,8.6,1.7l0.3,0.1c3.1,0.1,6.7,0.8,9.8,1.2c5.9,0.7,20.7,2.2,26.2,1.1c1.8-0.4,2.9-1,4.4-1.4
	c0.7,2.9,0.6,4.2,0.1,7.1c-0.3,1.4-0.8,5.6-1.4,6.6c-2.4,3-36.4-4-43.6-6c-0.9-0.3-1.9-0.5-2.8-0.8c-1.1-0.4-2-0.5-2.3-1.6
	c1.3,0.3,2.1,0.8,1-2.1c-0.5-1.3-1.5-1.8-3-2.1"/>
<path class="st8" d="M254-88.2c0-1.7-0.1-0.3,4-1.9c0.3-0.1,0.5-0.2,0.9-0.2c0.1,0,0.3,0,0.4,0c0.4,0.1,0.3,0.1,0.4,0.2
	c-0.5,0.5-1.7,0.9-2.5,1.1C256.2-88.6,255.2-88.4,254-88.2L254-88.2z M293.7-99.4l3.7,0l-0.1,20.2l-3.7-0.6
	c-0.2-1.3,0.4-3.5,0.5-4.8c0-0.7,0.1-1.7,0-2.4c-0.1-0.9-0.4-1.1-0.4-2.2C293.6-92.6,293.7-96.1,293.7-99.4L293.7-99.4z M288.2-82
	l-1.8-0.1c-0.1-0.8,0-4.4,0-5.3l1.8,0.9c0,1,0,0.8,0,1.7C288.3-83.7,288.2-82.9,288.2-82L288.2-82z M288.3-83l0-3.5l5.5-1.4l0.3,2.9
	C293.9-84.9,288.3-83,288.3-83L288.3-83z M297.4-79.2l0.1-20.2l1.5-0.2l-0.2,18.3C298.8-79.8,298.5-79.5,297.4-79.2L297.4-79.2z"/>
<path class="st5" d="M249.6-98.2l-4.2,0.4c-0.1,0-0.1,0-0.2,0.1c0,0.1-0.1,0.1-0.2,0.1c-0.5,0.1,0.1,0.3-0.6,0l-0.9,0.3
	c1,0,0.8-0.1,1.7-0.2L249.6-98.2L249.6-98.2z"/>
<path class="st8" d="M251.8-100.1c-0.3,0.1-0.8,0.3-1.5,0.2c-1.3-0.2-2.6,0.1-3.9,0.1c0.5,0.6,2.1,0.2,2.9,0.1
	c0.9,0,1.9-0.1,2.9-0.1L251.8-100.1L251.8-100.1z M245.9-99.9l-11.3-0.1c-1.3,0.2-2-0.5-3.3,0.1l13.4,0.4c0.1,0,0.9-0.1,1.8,0
	L245.9-99.9L245.9-99.9z M231.6-100.3l-18.9-0.9l-1.2-0.1c0,0.1,0.1,0.1,0.1,0.1l0.3,0.4c0.7,0,1.7,0.1,2.1,0.1
	c0.3,0,0.7-0.1,1.3-0.1c0.1,0,0.5,0,0.6,0c0.8,0.1,0,0,0.5,0.2c0.2,0,0.1,0.1,0.4,0l13.5,0.6C231.2-99.9,231-99.8,231.6-100.3
	L231.6-100.3z M257.9-110.6l-0.5,0.1c-0.2,0.3,0.3,0.2-0.4,0.3c0.3,0.3,0.8-0.1,1.5-0.3L257.9-110.6L257.9-110.6z M275.4-65.9
	l0.4-0.3c0.6-0.3,2.2-1.9,3-2.8"/>
<path class="st5" d="M258.3-99.3l-5.7,0.7l-0.5-9 M253.1-89.4c-1.4,0.1-8.6,0.3-9.3-0.1c-0.9,0.1-1.7,0-2.6-0.1
	c0-0.8,0.8-4.1,1.1-5.3c0.2-0.9,0.3-0.8,0.6-1.4c0-0.5-0.1-0.4,0.4-0.2c-0.1,0-0.4,0-0.4-0.1c-0.6-0.2,0.1,0.2-0.3-0.2
	c-1.3,0.9-1.9,5.5-2.3,7.2c-7.7-0.2-19.7-2.2-27.5-3.1"/>
<path class="st7" d="M309.9-89.4c0.3-0.3,0.5-0.3,0.7-0.5c0.7-1.2-0.7-0.6-0.2-2.2c0.2-0.6,0.7-0.9,0.1-1.4l-0.4-0.3 M307.3-97.3
	l0.1-0.2c0,0,0-0.1,0.1-0.1c0.8,0,1.5-0.1,2.2-0.1c1.1,0,2.2,0,2.6,0.3c0.4,0.3,0.9,1.3,1,1.8c0.2,1.2,0.2,2.4,0.1,4.1l3,0.1
	l-0.1-7.3l-4.1-0.2 M300.9-100l10.7-1.4 M307-97.4c-3.3-3-4.3-2.5-6.1-2.6 M301.2-86.4l8.3-2.9c0.3,1.3,0.5,2.8,2,2.3l0.4-0.6
	c0.5-2.3,0.7-8.2-0.3-8.6c-0.8-0.3-1.7,0.4-2.1,6.5 M279-69.4c0.3-0.6,0.7-1.7,1.1-2.5c0.4-0.8,0.7-1.8,0.9-2.7
	c0.6-2.3,0.8-4.1,0.9-6.5c0.4-0.3-0.1,0,0.4-0.2l0.4-0.1c0,0,0.1,0,0.1,0l-0.1-5.3c2.8,0.2,2.5-1.7,3.5-2.5l0-0.8
	c-0.6,0.4-0.1-0.1-0.6,1c-0.3,0.5-0.2,0.6-0.7,0.9c0.1,0.4,0.2,0.4-0.2,0.2c0.1,0.4,0.2,0.3-0.3,0.2c0.1,0.4,0.2,0.3-0.2,0.2
	c-0.1,0.7-0.9,0.5-1.6,0.4l-0.1-1l-0.1-1.4c0-0.5-0.3-0.4,1.6-0.8c0.2,0,0.9-0.1,1-0.2c1.3-0.5,0.3-0.4,0.1-0.6l-2.8,0.8l-0.4-2.3
	l3.7,0.3l-0.1,0.9l0.8,0.4c-0.3,1.1-0.3,0.5,0.3,1.2c-0.1-0.5-0.2-0.5,0.2-0.7c0-1.4,0-0.4,1.5-1.5c0.3-0.2,0.1-0.1,0.4-0.3
	c1.4,0.4,1.4,0.8,2.2,1.5c1.2,1.1,1.7,0.6,2.4,1.2c-0.4,0.8-4.8,1.6-6.7,2.2l0,5.3c4.4,0.5,3-0.5,7.2-1.5l0,3.8
	c-0.4,0.3-0.6,0.3-1,0.5l0.5,0.4c0.8,0.6,0.4,0.6,1,0.8c0.2,0.1,0.4,0.1,0.7,0.2l0,4.6c-1,0.7-2,0.8-2.4,1.6l4,0.9
	c1.3,0.2,1.1,0.3,2.7-0.7c0.8-0.5,0.5-0.2,0.6-0.9l-1.9-0.3l0-5.1c1.2-0.5,1-0.3,1.5-1l0.4-0.5c0,0,0.1-0.1,0.1-0.1
	c-0.5-1.1-1,0.5-0.9-2.5c0-1.2,0-2.6,0-3.8l2-0.5c1,2.2,4,1.9,5.2,1.7c0.2,0-2.2-4.6,0.3-0.1c0.2,0.2,0.5,0.4,3.2,0.6
	c2.1,0.2,2.2-0.8,2.7-1.8c0.5-1.6,1-3.7,1.1-5.7l3,0.1l-0.1-7.3 M279.5-90c0.6,0.9,2.3,3.1,2.4,9 M271.3-92.3c1.6,0.2,4.2,0,5.6,0.6
	l1,0.2l-0.6-0.7c-0.1-0.3-0.1-0.9-0.1-1.3c-0.4-0.5-0.6-0.9-1-1.4c-0.4-0.4-1.2-1-1.3-1.3c1.9-0.5,3.3,0.3,4.1,1.2l-0.2-0.6l0.7-0.3
	c-0.8-0.2-1,0-0.7-2.6c1,0,0.9-0.1,1.1,0.9c0.1,0.6,0.3,1.1,0.3,1.7c-0.6,0.4-0.3,0-1,0.5c0.6,0.2,0.5,0.3,1.1,0.6
	c0.6-1.1-0.4-0.3,0-0.6c0.2-0.1,0.2,0.4,0.9-0.1c-0.7-0.3-0.6-0.4-0.8-1.4c-0.2-0.8-0.3-1.3-0.3-2.2l0.3,0.9
	c0.4,1.9,0.3,1.3,1.5,2.4l1.1-0.8c-0.2,0.4-0.5,1.5-1.1,1.5c-0.6,0-0.2,0-0.4-0.3c-0.5,0.6,0,0.3-0.8,0.7l-0.3,0.2
	c0.4,0.2,0.7,0,1,1.6c-1-0.5-0.3-0.3-1.6-1.7 M211.6-101.5c-1.4-0.1-2.9-0.1-4.1-0.8c-0.2-1.2-0.2-4.3-0.3-5.4l0.5-2.1
	c5.8,1.2,15,1,21.2,0.9c3.2-0.1,6.7-0.1,10-0.4c3.1-0.3,6.6-0.8,9.7-1l1.1-0.2l3-0.5c-0.5-0.4,0.8-0.5-0.9-0.3
	c0.1,0,0.1-0.1,0.2-0.1l0.3-0.4l-0.6,0.2l-1.7,0c0.4-1.3,0.8-2.3,1.3-3.5c0.7-1.6,0.5-2.3,2.4-2.5l0.2,4.7c1.6,0.2,0.7,0.1,0.7-2.8
	c0-0.9-0.1-1.9,0.1-2.8l2.1,0.2l1.4,0l0.3,1c0-0.9,0.1-0.6,0.2-0.8l-0.1-0.6c-0.7,0-1.1,0-1.7-0.2c0-1.2,0.1-0.6,0.5-1.6
	c0.2-0.5,0.3-1,0.4-1.5c0.3-1.1,0.6-2.1,0.9-3.1l4.9-18.2c0-0.4,0-0.2,0-0.6c-0.1-1.1-4.8-1-7-1.1 M261-144.7
	c1.8,0.1,3.6-0.2,5.7,0.2c2.3,0.4,7.4,2.2,9.6,3.2c2,0.8,3,0.9,3.3,3.2c-1-0.2-0.4-0.4-2.2-1.1l-6.9-2.4c-1.6-0.5-3.7-1.1-4.9,0
	c-1,0.9-1.9,1.9-2.6,3.6c-1.1,2.9-4.2,17.5-4.2,20.4c-0.5,2.8,0.1,0.5,0.3,1.9l-0.2,2.8c-0.1-0.1-0.1-0.2-0.2-0.3l-5.7,1l-0.1,0
	c0.3,0.3,4.5-0.1-0.6,0.6c0.4,0.3-0.6,0.3,0.6,0.3 M258.3-110.8c0.3,0.1,0.4,0,0.8-0.2l0.2,1.4c-0.6-0.6,0.1-0.3-0.3-1.5l0.4-2.1
	c0.2-5.6,2.1-15.3,3.5-21c0.3-1.1,1.4-5.3,2.5-5.9c-0.1,0.4,0,0.3-0.3,0.8c-0.4,0.6-0.4,0.3-0.7,1.3l-1.1,4.2
	c-0.4,1.9-4.8,21-2.3,22l1.1,0.1c0,0,1.7-0.2,5.7-1.8 M262-114.2l-0.5-3.9c0.2-3.4,2.9-20.3,5-21.1c1.3-0.5,11.4,3.4,11.8,3.7
	c0.3,0.1,0.2,0,0.2,0.3c0.5-0.2,0.4-0.3,0.3,0.2c0.6,1.3,0.9,6.8,1,8.6c0.1,1.8,0.3,2.8-0.8,3.9c-2.9,2.7-12.3,8.3-15.4,8.8
	c-0.7,0.3-1.3,0.5-1.4,0.4 M269-114.3c3-1.9,8.8-5,11.4-7.4 M280.6-126.2c0-3.2-0.8-8.6-1.4-10.4c-2.9-1.5-7.3-3-10.3-3.8
	c-2.5-0.7-2.4,0.1-3.5,0.3c0.4-3.2,9.4,0.8,11.5,1.5c2.9,0.9,2.8,1,3.6,4c1.4,5.6,1.5,16.6,1.4,21.9c-0.1,4.2-0.1,9.6-2.5,13.2
	c-5.7-1.6-7.4,1.6-8.4,3c-1.4,1.9-4.2,9.1-3.8,10.8c0.3-0.3,0,0.3,0.3-0.4c1.2-3.7,2.8-13.8,10.7-12.8l0,2.9c-3.3-1.7-4.3-0.4-6,1.5
	c-1.4,1.5-2.4,3.7-3.3,5.7c-0.6,1.4-1.5,3.2-1.3,4.7"/>
<path class="st8" d="M210.7-82.6c3.3,1,8.3,2.2,11.7,3c0.7,0.8,1.3,2,2.3,2.7c0.6,0.4,2.1,1.7,5.6,1.9c3.7,0.2,4.7-0.7,6.2-1.8
	c4.3,0.5,8.6,1.4,13,1.9c4.2,0.5,6.1,0.5,9.8-0.3c0.7-0.2,2.3-0.5,2.7-1.1c-1-0.1-2.2,0.5-3.2,0.8c0.2-1.2,0.1-1,1.1-1.3
	c2-0.6,4.2-1.6,6.1-1.8c-0.3,1.2-0.5,1-1.7,1.4c-0.8,0.3-1.6,0.5-2.4,0.7c0.8,0.6,0.3,0.3,1.4,0.1c1.1,8.4,2.9,10.3,11.5,10.8
	l0.8-0.3 M263.7-76.6c0.6-0.5,1.6-0.7,2.4-0.9l0.4-1.8l-2.5-0.5c0.2-0.9,0.4-2.2,1.3-2.5c1.4-0.5,2.3,0,2.2-1.8
	c-0.2,0.2-0.2,0.2-0.3,0.3l-0.3,0.4c0.2-0.9,0.5-1.5,0.1-2.4c-0.8,3.1-0.2,2.7-2.2,3.3c-1.4,0.4-4,1.2-5,1.3c0.2-2.2,0.7-3,0.5-5.6
	c-0.1-0.7-0.5-2.3-0.5-2.6l0.2-3c-0.4-0.6-0.5-3.3-0.3-4l0,4.9c-0.4-0.3-0.2,0.1-0.4-0.5c-0.1-0.3-0.1-0.3-0.1-0.6l0.1-3
	c0-1.3-0.3-2.8-0.3-3.4c0.1-4.6-0.3-6.8-0.3-11.2c-0.5-0.1-0.1-0.1-0.7,0.1c-0.2,0.1-0.5,0.2-0.9,0.3c0.3,0.3-0.1,0.1,0.4,0.2l1-0.3
	l0.4,10.6"/>
<path class="st5" d="M295-72.1l-0.2-5.7l1.9,0.2c0.2,1,0.1,2.7,0,3.8C296.8-71.9,296.8-71.6,295-72.1L295-72.1z"/>
<path class="st1" d="M277.9-77.4l-0.7,0l0.2-1.3c0.2-0.6,0.4-0.4,0.9-0.2l0.4-0.1c0.1-0.9-0.1-2.1-0.4-2.8l0.2,1.6l-1,0
	c-0.2-0.6,0-0.4-0.4-0.7l0.5-0.3c0.3-0.2,0.1,0.1,0.4-0.3c0.4-0.5,0.2-0.1,0.2-0.8c-1.1-0.8-1.3,0-1.7,0.4c-0.7-0.2-1.5-0.5-1.3,0.6
	c0.2,1,0,0,1,1c0,0-0.1,0-0.1,0l-0.3,0.1c-0.6,0.3-0.3,0.5-0.7,0.9c-0.5,0.4-0.1-0.3-0.6,0.5c-0.2,0.3-0.2,0.4-0.4,0.9
	c0-1.4,0.2-2.6,0.7-3.8c1-2.4,1.7-1.5,2.6-1.9l-1.5,0c0.1,0.3,0,0.1-0.2,0.1c0,0.4,0.1,0.3-0.4,0.3c-0.2,0.8-1.2,1.7-1.5,3.5
	c-0.1,0.8-0.1,1.6,0,2.4c0.1,0.9,0.4,1.2,0.4,1.9c0.4,0,0.3-0.1,0.2,0.3c0.3,0.1,1.2,1.1,2.2,0.5c-1.8,0-2.3-0.5-2.5-3.2
	c0.5-0.2,0.4-0.1,0.7-0.1c0,0,0.3,0.1,0.4,0.1l0.5,0.2c-0.4,0.8,0.3-0.9,0,0.4c-0.2,1.1-0.6,0.6-0.4,1.5c0.6,0.3,0.7,0.2,1.2,0
	c0.6-0.3-0.4-0.6,1.1-0.4c0.7-0.2,0.3,0.4,0.7-0.8l-1,0C277.9-77,277.3-76.8,277.9-77.4L277.9-77.4z M276.5-79.3
	c0.2-0.4,0-0.4,0.3-0.9c0.2,1.1,0.1,2.5-0.7,2.9c0.4-0.5,0.3-0.3,0.4-1.1l-0.4-0.3c-0.4-0.2-0.1,0.2-0.4-0.2
	c-0.2-0.2-0.1-0.3-0.1-0.7L276.5-79.3L276.5-79.3z"/>
<path class="st7" d="M273.5-71.3c0.4-0.1,0.4-0.2,0.2,0.2l0.6,0c0.2-0.2-0.4-0.2,0.5-0.2c1,0,0.3,0,0.6,0.2c0.7-0.5,0.7-0.8,1.5-1
	c2.2-3.2,3.9-9,1.4-13.4c-0.9-0.8-0.5-0.9-1.9-1.4c-2.6-0.6-4.5,3.6-4.9,6.5C270.5-73.2,273.2-72.5,273.5-71.3L273.5-71.3z"/>
<path class="st3" d="M211.7-87.2c0,1.2,1.1,3.4,2,4.1c0.7,0.6,3.9,1.4,4.8,1.1c0.2-0.7-0.1-1.4-0.4-2.5c-0.8-2.6-1.3-2.2-3.8-2.8
	C213.1-87.5,212.7-87.8,211.7-87.2L211.7-87.2z M252-77.3l-4.9-0.6c-0.3-0.5-0.8-2.3-0.8-3c0.1-1.3,4.4-0.5,4.7-0.3l0.4,0.4
	c0,0,0.1,0.1,0.1,0.1c0,0,0,0.1,0.1,0.1c0.3,0.6,0.3,1.5,0.4,2C252-77.7,252.3-78,252-77.3L252-77.3z M246.3-81.9
	c-1.8,0.8-0.2,4,0.2,4.5c0.7,0.8,5.1,0.9,5.5,0.7c1.2-0.7,0.2-4.7-1.3-5.1c-0.3-0.1-1.2-0.1-1.6-0.1C248.2-82,246.9-82.1,246.3-81.9
	L246.3-81.9z M225.7-103.4l-0.2,1l-0.3,0.4l-0.2,0.2c0,0-0.1-0.1-0.1-0.1l-0.6-0.7c0-0.1-0.1-0.1-0.1-0.2c-0.1,0.9,0.2,0.6-0.5,0.6
	c0.1,0.2,0,0.2,0.1,0l-0.3-0.1c-0.4-0.6-0.4-0.4-0.4-1.2l0.4,0l0.4,0.1c0,0,0.5,0.1,0.5,0.2c0-0.1-0.1-0.2-0.1-0.2l-0.4-0.6
	c-0.1-0.1-0.2-0.2-0.4-0.3l0.4-0.2l0.2,1c0.1-0.1,0.1-0.1,0.2-0.1l0.4-0.3c0.4-0.5,0-0.4,0.5-0.5c-0.1,0.4-0.1,0.3-0.4,0.6
	c0,0-0.1,0.1-0.1,0.1c0,0-0.1,0.1-0.1,0.1l-0.3,0.4c0.1,0,0.2-0.1,0.3-0.1C225.3-103.6,225.7-103.9,225.7-103.4L225.7-103.4z
	 M223.8-105.2c-2.6,0.6-1.7,4.4,1.3,3.8c2.2-0.5,1.4-3.2,0.6-3.6C225.2-105.3,224.4-105.3,223.8-105.2L223.8-105.2z M278.4-108.5
	c0-0.5-0.1-1.2,0.4-1.5c1.5-0.8,2.2,1.1,1.3,1.4C279.9-108.5,278.6-108.5,278.4-108.5L278.4-108.5z M277.7-107.7
	c0.8,0.5,2.6,0.5,3.7,0.2c0.3-1.3,0.2-2.3-0.2-3.5C279.1-111.5,277.4-110.6,277.7-107.7L277.7-107.7z M262.8-90.4
	c0.1,0.3,0.3,0.7,0.2,1.1c-0.1,0.7-0.2,0.5-0.7,0.7C262-89.3,261.7-90.2,262.8-90.4L262.8-90.4z M261.3-88.2c2.1,0.8,2.8-0.4,2-2.6
	c-1.1-0.3-1.6-0.6-2.1,0.4C260.8-89.7,260.9-88.9,261.3-88.2L261.3-88.2z M268.1-151.6c0.6,0.1,0.6,0.2,0.7,1.1
	c0.1,0.6,0,0.8-0.3,1.2C267.9-149.7,267.5-150.8,268.1-151.6L268.1-151.6z M266.9-151.6c-0.4,1.6,0.2,2.2,0.7,3
	c1.1-0.5,1.9-0.2,1.5-2.1C268.9-152,268.2-152.5,266.9-151.6L266.9-151.6z M230.9-112.2l-1.5,0.1
	C229.9-112.6,230.5-112.7,230.9-112.2L230.9-112.2z M229.2-112.7l-0.1,0.8c0.1,0,0.1,0,0.2,0.1l0.4,0.1c0.3,0.1,0.5,0.1,0.8,0.1
	c0.7,0,0.8,0,1.2-0.1l0-0.6c-0.4-0.3-0.3-0.3-1.1-0.4C230.1-112.9,229.5-113,229.2-112.7L229.2-112.7z M249.1-79.5
	c0.2,0,0.4,0.1,0.6,0.2c0,0,0.5,0.4,0.5,0.4C249.6-79.1,249.5-79,249.1-79.5L249.1-79.5z M251-78.6c-0.3-0.6-0.3-0.5-0.9-0.9
	l-0.2-0.2c-0.7-0.5-0.4-0.4-1.3-0.5C248.7-78.3,250.5-78.4,251-78.6L251-78.6z M311.1-89.1c0.3-0.6,0.4-1.5,0.4-2.2
	c0-0.5,0.1-0.9,0-1.4c0-0.1,0-0.5,0-0.6l-0.2-0.7c-0.3,0.7,0.1,1.6-0.3,3.8C310.7-88.9,310.9-89.2,311.1-89.1L311.1-89.1z"/>
<path class="st7" d="M206.8,24.4l21.4-27l34.6,14.5 M204.7,25l21.9-28.6l63.7,23.8l26.2,10.7"/>
<path class="st8" d="M206.8,24.4l1.1,2.1l20.3-25.2l33.1,14.8 M262.7,11.8l-1.4,4.1 M215.3,23.8l1.2,58.9 M217.7,83.1l-1.2-59.6"/>
<path class="st7" d="M219.2,78.1l0-2.5 M219.1,72.6l0-2.5 M219,67.1l0-2.7 M219,61.4l-0.4-34.2 M217.1,24.1l41-9"/>
<path class="st5" d="M211.7,23.5l43.4-10.1 M214.8,19.4l34.1-9 M218,15.4l25.3-7.3 M221.4,11.2l17-5.4 M225.3,6.4l8.2-2.8
	 M208.9,26.7l20.3-25.1"/>
<line class="st8" x1="257.7" y1="14.3" x2="257.4" y2="95.1"/>
<path class="st7" d="M240.7,19.3l-0.2,67.6 M227.3,22l0.4,61.4"/>
<path class="st8" d="M259.8,91.4l0,4.5l50.5-22.2 M259.8,95.9l-43.7-13.3"/>
<line class="st7" x1="257" y1="91.4" x2="217.8" y2="80.6"/>
<line class="st8" x1="261.7" y1="91.8" x2="310.2" y2="71.9"/>
<path class="st7" d="M217.2,27l40.5-7.9 M204.8,25.2l2.5,0.4 M209.5,25.9l5.7,0.9 M216.8,27l10.3,1.5 M230.2,29l10.4,1.5 M244,31
	l5.7,0.8"/>
<line class="st8" x1="259.8" y1="15.3" x2="259.8" y2="91.1"/>
<path class="st7" d="M242.4,18.7l0,68.8 M228.8,21.5l0.6,62.4"/>
<line class="st8" x1="261.6" y1="16.1" x2="261.7" y2="95.1"/>
<path class="st7" d="M243.8,21.8l0,42.4 M243.9,67.7l0,3.4 M243.9,74.8l0,3.1 M243.9,81.7l0,3.2 M230.2,24.6l0.4,58.9"/>
<line class="st8" x1="309.6" y1="30.7" x2="309.2" y2="72.2"/>
<path class="st7" d="M261.6,15.8l48,15.4 M262.7,11.8l53.8,19"/>
<path class="st5" d="M262.2,88l27.2-10.5 M219.2,77.8l5.2-1.2 M230.5,75.3l9.9-2.2 M247.3,71.5l2.2-0.5 M249.4,69.2l-5.3,1.1
	 M240.4,71l-9.9,2 M240.5,68.6l-9.8,1.7 M225.7,71.2l-6.6,1.2 M240.5,66.4l-10,1.5 M249.5,62.9l-5.5,0.7 M240.6,64l-10,1.2
	 M227.4,65.6l-8.4,1 M249.6,60.8l-5.6,0.6 M240.5,61.7l-10,1 M249.8,58.7l-5.8,0.4 M240.6,59.4l-10,0.7 M227.4,60.3l-8.5,0.6"/>
<path class="st3" d="M309.2,70.1l-19.3,7.4 M309.2,68.1L290,74.9 M309.2,66L290,72.1 M309.2,63.9l-19.2,5.4 M309.2,61.8l-19.1,4.6
	 M309.2,59.7l-19.1,3.9 M309.2,57.7l-3.6,0.6 M297.9,59.5l-7.7,1.3 M309.2,55.6l-3.4,0.5 M297.9,57l-7.5,0.9 M309.2,53.5l-3.5,0.3
	 M297.9,54.4l-7.6,0.6 M309.2,51.4l-3.4,0.1 M297.9,51.9l-7.6,0.3 M309.2,49.3l-3.5,0 M298,49.4l-7.6,0 M309.2,47.3h-3.4
	 M297.9,47.3h-7.5 M309.2,45.2l-3.4-0.1 M298,44.8l-7.5-0.3 M309.2,43.1l-3.4-0.3 M298.1,42.3l-7.6-0.6 M309.2,41l-3.4-0.4
	 M298.1,39.7l-7.5-0.9 M309.2,38.9l-3.4-0.6 M298.1,37l-7.5-1.3 M309.2,36.9l-3.3-0.7 M298.2,34.5l-7.5-1.6 M309.2,34.8l-18.5-4.6
	 M309.2,32.7l-18.5-5"/>
<path class="st5" d="M281,74.8l0-2.8 M281,68.7l0-2.9 M281.1,62.4l0.2-32.7l-16.5,2.1L265,65 M265,69.1l0,3.2 M266.4,71.9l0-3
	 M266.3,64.8l-0.2-31.6l13.2-1.2l0.1,30.8 M279.4,66l0,3.1 M279.5,72.4l0,2.9"/>
<path class="st3" d="M279.3,32.9l-12.1,1.2l0.1,30.5 M267.4,68.5l0,3.3"/>
<path class="st5" d="M300.6,37.4l3,0.5l-0.2,19.9 M298.3,37.2l1.2,0.2l-0.2,21.2"/>
<line class="st7" x1="261.3" y1="11.3" x2="259.9" y2="15.5"/>
<path class="st5" d="M290.1,21.5l-1.5,3l-26-11.2 M288,24.2l1.6-2.9 M305.3,26.9l-1.4,2.5L289.3,23 M304.9,26.8l-1.4,2.5"/>
<polyline class="st7" points="316.5,30.9 315.4,32.8 308.6,30.1 "/>
<path class="st5" d="M289.3,75l-27.7,9.7 M289.4,72.2l-27.8,8.7 M289.4,69.5l-27.8,7.7 M289.4,66.7l-27.7,6.6 M289.5,63.9l-27.8,5.8
	 M289.6,61.1l-28,4.5"/>
<path class="st7" d="M289.3,72.2l0,2.8 M289.4,66.7l0,2.9 M289.4,61.1l0,2.7 M289.4,77.5l0,2.9"/>
<line class="st8" x1="289.9" y1="24.9" x2="289.4" y2="80.4"/>
<path class="st7" d="M288,24.2l-0.2,37.1 M287.7,64.2l0,2.8 M287.8,70l-0.1,2.7 M287.7,75.6l0,2.6"/>
<path class="st8" d="M249.6,72l0-3.4 M249.6,64.7l0.1-35l7.7-1.2 M261.8,27.9L287,24"/>
<line class="st5" x1="242.4" y1="64" x2="257.5" y2="65.8"/>
<line class="st5" x1="217.6" y1="61.3" x2="227.6" y2="62.2"/>
<line class="st5" x1="242.6" y1="67.5" x2="257.5" y2="69.7"/>
<line class="st5" x1="217.8" y1="64.1" x2="227.6" y2="65.4"/>
<line class="st5" x1="242.6" y1="71" x2="257.5" y2="73.3"/>
<line class="st5" x1="217.8" y1="66.9" x2="227.6" y2="68.2"/>
<line class="st5" x1="242.6" y1="74.5" x2="257.5" y2="77.4"/>
<line class="st5" x1="217.8" y1="69.8" x2="227.6" y2="71.5"/>
<polyline class="st5" points="242.4,77.7 243.2,77.8 257.5,80.8 "/>
<polyline class="st5" points="217.9,72.3 218.4,72.4 227.6,74.3 "/>
<line class="st5" x1="242.6" y1="81.3" x2="257.5" y2="85"/>
<line class="st5" x1="217.8" y1="75.2" x2="227.5" y2="77.6"/>
<line class="st5" x1="242.5" y1="84.5" x2="257.4" y2="88.3"/>
<line class="st5" x1="217.9" y1="77.8" x2="227.5" y2="80.4"/>
<line class="st5" x1="226.2" y1="25.4" x2="227.3" y2="25.6"/>
<line class="st5" x1="230.2" y1="26.1" x2="240.6" y2="27.8"/>
<line class="st5" x1="243.9" y1="28.4" x2="250" y2="29.4"/>
<line class="st5" x1="224" y1="79.5" x2="227.6" y2="78.7"/>
<line class="st5" x1="230.7" y1="78" x2="240.5" y2="75.8"/>
<line class="st5" x1="268.6" y1="75.3" x2="275.9" y2="76.4"/>
<path class="st7" d="M328.7,187l-14.3-24.9l-33.1,3.4 M329.6,186.8l-14.1-25.9l-34.8,3.7L196,184.8"/>
<path class="st8" d="M328.7,187l-1.1,1.4l-13-23.4l-31.5,5.5 M283.2,165.3l1.5,4.9 M322,184.6l-0.9,46.1"/>
<line class="st7" x1="324.7" y1="185.7" x2="286.7" y2="169.9"/>
<path class="st5" d="M322.7,184.1l-33.8-14.6 M322.8,182l-27.3-13.6 M320.4,177.9l-18.3-10.7 M317.7,173.4l-11-7 M315.4,169.5
	l-5.1-3.8 M326.3,187.6l-13.4-22.3"/>
<path class="st8" d="M282.1,171.5l0.2,79.1 M280.1,170.7l0.1,80.7 M277.4,171.5l-0.1,79 M246.4,177.8l0.1,63.7 M245.1,177.9l0,66
	 M243.4,178.4l-0.1,65 M261.7,174.6l0.2,46.7 M261.9,225l0,3.3 M261.9,232l0,3 M262,238.8l0,3.2 M260.4,174.7l0.1,71.4 M258.5,175.2
	l0,70.3 M280.2,251.5l0,2.3l-74.4-21.2 M280.2,253.7l41.8-23.5"/>
<line class="st7" x1="280.2" y1="251.5" x2="322" y2="228.9"/>
<line class="st8" x1="280.2" y1="251.5" x2="205.7" y2="231.1"/>
<path class="st7" d="M322,186.7l-41.9-15.9 M302.9,183.5l-4.3,0.5 M295.2,184.3l-13,1.4 M277.4,186.3l-10,1.1l-5.6-1.1 M305.8,180.3
	l-0.9,57.9 M303.9,182.6l-0.4,35.5 M303.4,221.3l0,2.5 M303.3,227.1l0,2.3 M303.3,232.8l-0.1,2.7"/>
<line class="st8" x1="206.4" y1="185.3" x2="206.8" y2="231.4"/>
<path class="st7" d="M280.1,170.7l-73.7,15.1 M281.3,165.5L196,184.8 M277.3,245.6l-16.9-4 M243.3,237.6l-6.1-1.3 M237.2,233.4
	l6.1,1.3 M260.4,238.3l16.9,3.6 M237.2,230.4l6.2,1.2 M260.4,234.9l16.9,3.3 M237.1,227.6l6.2,1 M260.4,231.6l16.9,2.9 M237.1,224.7
	l6.2,0.9 M260.4,228l16.9,2.4 M237.1,221.8l6.2,0.8 M260.4,224.7l16.9,2.1 M237.1,219l6.3,0.6 M260.4,221.2l16.9,1.6"/>
<path class="st3" d="M206.7,228.8l29.9,7.3 M207,226.6l29.6,6.7 M206.7,224.2l29.8,6 M206.7,221.9l29.7,5.3 M206.7,219.6l29.7,4.6
	 M206.6,217.4l29.6,3.9 M206.6,215.1l5.6,0.7 M224.2,217l12,1.3 M206.6,212.8l5.5,0.5 M224.1,214.3l11.8,1 M206.6,210.5l5.5,0.4
	 M224.1,211.5l11.9,0.7 M206.6,208.2l5.5,0.2 M224,208.8l11.9,0.4 M206.5,205.9l5.5,0.1 M224,206.1l11.8,0.1 M206.5,203.7l5.5,0
	 M224,203.9l11.8,0.1 M206.5,201.5l5.4-0.1 M223.9,201.2l11.8-0.2 M206.5,199.2l5.4-0.2 M223.9,198.5l11.7-0.4 M206.5,196.9l5.4-0.4
	 M223.8,195.7l11.7-0.8 M206.4,194.6l5.4-0.5 M223.8,192.9l11.7-1.2 M206.4,192.3l5.4-0.7 M223.7,190.2l11.6-1.4 M206.4,190.1
	l28.9-4.1 M206.4,187.8l28.8-4.6 M321.2,227.2l-15.5,7.2 M321.3,224.9l-15.5,6.7 M321.3,222.8l-15.5,5.8 M321.3,220.8l-15.6,5.3
	 M321.4,218.6l-15.6,4.6 M321.4,216.4l-15.6,3.9 M321.5,214.4l-2.9,0.5 M312.2,216.3l-6.3,1.1 M321.4,212.2l-2.9,0.4 M312.2,213.5
	l-6.2,0.8 M321.5,209.9l-2.9,0.2 M312.2,210.7l-6.3,0.6 M321.5,207.5l-2.9,0.1 M312.3,207.8l-6.3,0.2 M321.5,205.2l-2.9-0.1
	 M312.3,205.1L306,205 M321.5,203l-2.9-0.1 M312.4,202.6l-6.2-0.3 M321.5,200.7l-2.9-0.2 M312.4,200l-6.2-0.5 M321.5,198.4l-2.8-0.4
	 M312.4,197.3l-6.2-0.8 M321.6,196.2l-2.8-0.5 M312.4,194.5l-6.1-1.1 M321.6,193.9l-2.8-0.7 M312.5,191.6l-6.1-1.5 M321.6,191.6
	l-2.8-0.8 M312.5,188.9l-6.1-1.8 M321.6,189.3l-15.1-5 M321.6,187.1l-15.1-5.4"/>
<path class="st8" d="M246.3,185.5l12.4,2.2 M258.4,189.3l-12.2-1.7"/>
<polyline class="st5" points="246.2,188.5 257.4,190.1 257.4,232.2 "/>
<path class="st8" d="M205.8,231.2l0,1.4 M211.8,191.4l0.4,25 M318.8,190.5l-0.2,25 M211.8,191.4l11.9-1.6l0.5,28l-12-1.4
	 M318.8,190.5l-6.3-1.9l-0.3,28l6.3-1.1 M223.8,191.6l-9.8,1.1l0.3,22.7l10,1 M312.5,190.3l5.2,1.4l-0.2,22.7l-5.2,0.7 M220.1,192
	l0.4,24 M314.4,190.8l-0.2,24"/>
<path class="st5" d="M220.2,193.2l-4.7,0.6l0.3,21.2 M314.4,192.3l2.5,0.6l-0.2,21.2 M223.8,192.9l-1.9,0.2l0.3,22.5 M312.5,191.7
	l1,0.2l-0.1,22.5"/>
<line class="st7" x1="281.3" y1="165.5" x2="283.1" y2="170.5"/>
<path class="st5" d="M239.9,175.3l2.2,3.1l40.5-9.1 M243,178.2l-2.3-3.1 M215.5,180.5l2,2.7l21.6-4.8 M216.2,180.4l2,2.6"/>
<polyline class="st7" points="196.9,184.9 198.4,187 208.5,184.8 "/>
<path class="st8" d="M235.5,179.9l0.7,59.6 M236.7,179.6l0.5,60.1"/>
<path class="st7" d="M238.3,179.8l0.4,39.3 M238.7,222.1l0,2.8 M238.7,227.8l0.1,2.7 M238.8,233.9l0,2.6 M305,217.8l-22.8,4.8
	 M305.1,220.5l-22.9,6.2 M305.1,223.4l-22.8,6.7 M305,226.2l-22.7,8.1 M305,228.7l-11.4,4.4l-11.4,4.4 M304.6,232l-22.3,9.8
	 M304.9,234.8l-22.6,10.9"/>
<path class="st5" d="M257.4,232.2l-10.9,2.8 M304.4,183.1l-22.1-7.5 M277.4,175.4l-15.6,2.6 M258.6,178.6l-12.1,2 M243.4,181.3
	l-5.1,0.9"/>
<path class="st8" d="M258.6,185.8l-12.1-2.1 M243.4,183.2l-5.1-1 M267.4,187.5l-0.1,34.4 M267.4,225.6l-0.1,3.4"/>
<polygon class="st8" points="331.3,353.4 308.4,350.2 275.6,378.4 275.4,383.4 313.8,394.9 331.4,357.7 332,354.3 331.3,353.4 "/>
<path class="st7" d="M284,371.2l33.6,8l1.5,1.2l-0.4,4.1 M263.7,359.6l27.4-14.8l18,2.4l0.8,0.9l-0.2,2.1 M290.8,365.4l30.7,6.5
	l1.3,1.1l-0.4,3.8 M244.9,370l27.4,7.5l1.9,1.2l-0.1,5.1 M301.1,356.4l11.1,1.9l1.2,1.4l1.2-1l12.8,2.2l0.9,0.9l-0.3,3.1
	 M263.7,359.6l10.1,1.8l1.1,1.5l1.7-0.6l11.2,2.2l1.4,1.1l-0.1,0.7 M305.1,353l24.4,3.9l0.9,0.8l-0.2,3"/>
<path class="st5" d="M319.1,380.4l-4.4,8.9l-39.2-10.9 M317.7,379.1l-4,7.5l-36-10 M272.3,377.6l-8.4,6.7l-28.9-9.1 M309.9,348.2
	l-0.8-0.9l-2.2,1.7l0.3,1.5l-1.1-0.8l-6.6,5.5l0.3,1.5l-1.3-0.7l-3.7,3.1l0.2,1.6l-1.4-0.6l-4.3,3.6l-23.6-5 M274.2,378.7l-10,8.2
	l-31-10.4 M309.9,348.2l-20.3,17 M321.4,371.9l-3,5.7l-32.8-7.7 M329.5,356.9l-1.7,3.1l-25.7-4.4 M331.3,353.5l-1.4,2.5l-24-3.6
	 M327.3,361l-5.1,9.5l-14.7-3l-1.2,1.2l-1.2-0.3l-0.5-1.5l-12.8-2.6 M287.9,364.6l-13.5,11.3l-12.6-3.5l-2.3,1.7l-0.9-0.2l0-2.2
	l-11.2-3 M313.7,386.6l1,2.7l-1,5.6 M263.9,384.3l0.3,2.7l0,5.7 M289.3,363.6l0.4,1.6l0,0.7 M318.4,377.6l0.9,2.2l3.4-6.8
	 M327.8,360l0.7,1.6l1.8-4 M329.9,356l0.7,1.2l1.4-2.9 M322.3,370.5l0.9,2.1l5.1-10.6 M274.4,375.8l0.9,2.1l14-12.3 M304.8,366.9
	l7.5-8.5 M258.6,371.5l15.3-10.2 M307.6,367.5l7-8.7 M261.7,372.3l14.9-10 M305.5,368.5l7.6-9 M259,373.5l16.2-10.7"/>
<polyline class="st7" points="263.7,359.6 247.4,368.5 235,375.2 233.2,376.6 233.6,381.7 264.2,392.6 274,383.9 "/>
<path class="st8" d="M271.1,355.7l22.6,4.4l1.4,0.6l0,1 M277.1,352.4l21.4,3.6l1.3,0.7l-0.1,0.9 M287.2,347l8,1.1l1,0.9l1.1-0.6
	l8.8,1.3l1.1,0.8l0,0.7 M296.2,349.1l-7.4,5.2"/>
<path class="st5" d="M294.8,359l-22.5-4 M299.5,355.2l-9.7-1.6 M306.9,349l-18.6-2.6 M295.2,348.1l-8,5.1l-8.7-1.5 M287.2,353.2
	l0.3,0.9"/>
<path class="st8" d="M285.1,332.1l-78.8,24.5l1.7,11.8 M214.4,370.5l-1.2-8.8l75.6-27.7 M213.2,361.7l-2.4-3.9l-4.5-1.2
	 M210.8,357.8l77-25.4 M239.3,346.3l4.5,0.6l1.6,3l0,3.3 M260.7,339.6l3.6,0.5l1.4,2.3l0,2.8 M275.9,334.9l2.7,0.3l1.2,2.1l-0.1,3.9
	 M285.1,332.1l2.7,0.3l1,1.7l-0.1,4 M288.7,338l-6.6,3"/>
<polyline class="st7" points="293.1,344.1 293.1,343.4 292.2,342.7 277.5,340.7 255.5,349.4 223.7,361.8 222,363.1 222.3,367.3 
	226.8,368.7 "/>
<path class="st8" d="M243.9,370.4l-1.8-1.3l-10-2.8L206.3,378l-2,1.7l0.9,5l12.6,5.4l15.8-9.1 M208,368.3l6.4,2.2l7.9-3.6"/>
<path class="st7" d="M231.8,358.6l20.9,4.9l1.7,1.2 M241.6,354.8l19.6,4.2l1.6,1.2 M256.8,348.9l7.7,1.3l0.9,0.9l1.2-0.6h0.2
	l7.9,1.3l1.3,1.2 M263,346.4l17.3,2.7l1.2,1 M268.5,344.2l16.4,2.3l1.2,1 M265.4,351.1l-11.4,5.1l-1.4,0.9 M285.2,341.7l-6.9,3.1
	l-0.6,0.7"/>
<path class="st5" d="M252.7,363.5l-8.1,4.1l-21.1-5.7 M244.7,367.6l0.2,2.4 M222,363.1l10,2.8 M242.1,369.1l-25.2,13.2l-10.6-4.4
	 M204.3,379.7l12.6,5.1l17.1-9.3 M216.9,382.3v2.5l0.9,5.3 M261.2,359l-6.6,3.5l-20.3-4.8 M254.6,362.4l0.3,2 M274.7,351.8
	l-11.7,6.3l-9-1.9 M263,358.1l0.3,1.7 M264.5,350.2l-12.5,5.6l-8.3-1.7 M251.9,355.7l0.1,1.3 M280.2,349.1l-4.2,2.1l-17.7-2.9
	 M276,351.2l0.4,1.6 M284.9,346.6l-3.7,1.9l-16.9-2.6 M281.3,348.5l0.1,1.6 M292.2,342.7l-6.2,3.3l-7.7-1.2 M286,346.1l0.1,1.5
	 M293.1,343.4l-1.7,0.8 M283.8,341.6l-7.1,3.2l-7-1 M305.4,342l-4.7,3.1l-7.5-1 M306.3,342.6l-5.3,3.6 M300.6,345.2l-0.1,1"/>
<polyline class="st7" points="292.3,345 293.1,344.1 298.6,341.3 305.4,342 306.3,342.6 306.2,345.2 304.4,346.6 "/>
</svg>
